<svg width="32" height="32" viewBox="0 0 32 32" fill="none" xmlns="http://www.w3.org/2000/svg">
<path fill-rule="evenodd" clip-rule="evenodd" d="M7.21908 7.21915C7.8924 6.54583 8.98406 6.54583 9.65738 7.21915L25.1501 22.7119C25.8234 23.3852 25.8234 24.4769 25.1501 25.1502C24.4768 25.8235 23.3851 25.8235 22.7118 25.1502L7.21908 9.65745C6.54577 8.98413 6.54577 7.89247 7.21908 7.21915Z" fill="white"/>
<path fill-rule="evenodd" clip-rule="evenodd" d="M25.1502 7.58847C25.8236 8.26179 25.8236 9.35345 25.1502 10.0268L9.6575 25.5195C8.98418 26.1928 7.89252 26.1928 7.2192 25.5195C6.54588 24.8462 6.54588 23.7545 7.2192 23.0812L22.7119 7.58847C23.3853 6.91515 24.4769 6.91515 25.1502 7.58847Z" fill="white"/>
</svg>
